<svg width="40" height="38" viewBox="0 0 29 38" fill="none" xmlns="http://www.w3.org/2000/svg">
<path d="M14.5 18.05C13.1266 18.05 11.8094 17.5496 10.8382 16.6588C9.86703 15.768 9.32143 14.5598 9.32143 13.3C9.32143 12.0402 9.86703 10.832 10.8382 9.94124C11.8094 9.05044 13.1266 8.55 14.5 8.55C15.8734 8.55 17.1906 9.05044 18.1618 9.94124C19.133 10.832 19.6786 12.0402 19.6786 13.3C19.6786 13.9238 19.5446 14.5415 19.2844 15.1177C19.0241 15.694 18.6427 16.2177 18.1618 16.6588C17.6809 17.0998 17.11 17.4497 16.4818 17.6884C15.8535 17.9271 15.1801 18.05 14.5 18.05ZM14.5 0C10.6544 0 6.96623 1.40125 4.24695 3.89548C1.52767 6.38971 0 9.77262 0 13.3C0 23.275 14.5 38 14.5 38C14.5 38 29 23.275 29 13.3C29 9.77262 27.4723 6.38971 24.753 3.89548C22.0338 1.40125 18.3456 0 14.5 0Z" fill="black"/>
</svg>
