<svg width="40" height="38" viewBox="0 0 80 67" fill="none" xmlns="http://www.w3.org/2000/svg">
<path d="M16.0889 28.9961C22.4889 39.53 32.8 48.1283 45.3778 53.5256L55.1556 45.3367C56.3556 44.3317 58.1333 43.9967 59.6889 44.4433C64.6667 45.8206 70.0444 46.565 75.5556 46.565C78 46.565 80 48.24 80 50.2872V63.2778C80 65.325 78 67 75.5556 67C33.8222 67 0 38.6739 0 3.72222C0 1.675 2 0 4.44444 0H20C22.4444 0 24.4444 1.675 24.4444 3.72222C24.4444 8.375 25.3333 12.8417 26.9778 17.0106C27.4667 18.3133 27.1111 19.765 25.8667 20.8072L16.0889 28.9961Z" fill="#141414"/>
</svg>
