<svg width="26" height="21" viewBox="0 0 25 20" fill="none" xmlns="http://www.w3.org/2000/svg">
<path d="M0 1.25C0 0.918479 0.16462 0.600537 0.457646 0.366116C0.750671 0.131696 1.1481 0 1.5625 0H4.92656C5.29642 0.000136211 5.65422 0.105226 5.93632 0.296575C6.21842 0.487923 6.40653 0.753124 6.46719 1.045L7.62344 6.58875C7.67869 6.85277 7.62652 7.12401 7.47463 7.36254C7.32274 7.60107 7.07914 7.79428 6.77969 7.91375L4.36094 8.88C5.22829 10.5996 6.52005 12.1616 8.15902 13.4728C9.798 14.784 11.7505 15.8174 13.9 16.5112L15.1094 14.5763C15.2586 14.3369 15.4999 14.1422 15.7977 14.0207C16.0956 13.8992 16.4343 13.8573 16.7641 13.9013L23.6937 14.8263C24.0586 14.8748 24.3901 15.0253 24.6293 15.2509C24.8685 15.4766 24.9998 15.7629 25 16.0588V18.75C25 19.0815 24.8354 19.3995 24.5424 19.6339C24.2493 19.8683 23.8519 20 23.4375 20H20.3125C9.09375 20 0 12.725 0 3.75V1.25Z" fill="#EFEFEF"/>
</svg>
